<svg version="1.1" viewBox="0 0 708.66 857.82" xmlns="http://www.w3.org/2000/svg">
 <g transform="translate(-35.433 63.886)">
  <path transform="translate(35.433 -63.886)" d="m378.22 20c-5.214-0.0095-10.653 0.20994-16.324 0.66211-143.37 11.546-105.35 163.01-107.47 213.73-2.6182 37.091-10.139 66.323-35.648 102.58-29.97 35.64-72.166 93.322-92.154 153.37-9.4338 28.34-13.923 57.226-9.7773 84.564-1.2987 1.163-2.5334 2.3817-3.709 3.6367-8.7993 9.394-15.302 20.776-22.547 28.439-6.7683 6.7515-16.411 9.3192-27.008 13.121-10.601 3.8036-22.24 9.4116-29.305 22.969 0 0-0.0011 4e-3 -0.0059 6e-3 -0.01153 0.0225-0.02315 0.0455-0.03516 0.0684-6.3956 11.946-4.4943 25.7-2.541 38.445 1.9533 12.745 3.9314 24.788 1.3066 32.959-8.39 22.932-9.4629 38.795-3.5566 50.301 5.9189 11.53 18.089 16.619 31.844 19.492 27.509 5.7455 64.762 4.3175 94.123 19.879 3.1108-5.8696 3.1059-5.876 0.0273 0.0137 31.432 16.433 63.297 22.272 88.721 16.465 18.432-4.21 33.394-15.186 41.078-32.074 19.885-0.0978 41.707-8.5188 76.66-10.443 23.713-1.91 53.333 8.4192 87.404 6.5273 0.89062 3.6965 2.1809 7.2523 3.9453 10.631 0.018 0.0348 0.0342 0.0693 0.0527 0.10352 13.208 26.411 37.749 38.492 63.902 36.428 26.188-2.0667 54.032-17.508 76.539-44.293l-4.127-3.4668 4.1582 3.4297c21.452-26.012 57.059-36.799 80.67-51.039 11.805-7.1204 21.385-16.037 22.125-28.986 0.73973-12.943-6.8589-27.448-24.332-46.844l-4e-3 -4e-3c-7e-3 -9e-3 -0.0148-0.0174-0.0215-0.0254-5.7411-6.4878-8.4805-18.511-11.424-31.316-2.9413-12.797-6.2241-26.603-16.73-35.549-0.021-0.0185-0.0414-0.0344-0.0625-0.0527-4.1814-3.6436-8.5265-6.116-12.902-7.7774 14.607-43.321 8.8759-86.46-5.8691-125.44-18.096-47.841-49.69-89.526-73.818-118.04-27.008-34.066-53.425-66.41-52.904-114.18 0.80446-72.906 8.019-208.11-120.27-208.29h-2e-3zm17.025 112.32h0.34765c7.28 0 13.498 2.1338 19.885 6.7695 6.4883 4.7092 11.162 10.605 14.93 18.838 3.6976 8.0232 5.476 15.872 5.6504 25.186 0 0.24419 6.1e-4 0.45308 0.0703 0.69727 0.0697 9.558-1.5694 17.686-5.1973 25.988-2.0701 4.7373-4.4476 8.7139-7.293 12.156-0.96599-0.46377-1.9692-0.91001-3.0098-1.3379-7.2124-3.0891-12.746-5.0562-17.357-6.6562 1.6716-2.0093 3.0632-4.3921 4.2871-7.3711 1.8488-4.4999 2.7572-8.8945 2.9316-14.127 0-0.20935 0.0684-0.38474 0.0684-0.62891 0.1046-5.0231-0.55836-9.3137-2.0234-13.709-1.5349-4.6045-3.487-7.918-6.3125-10.674-2.8255-2.7559-5.6514-4.0105-9.0352-4.1152-0.15864-0.01-0.31639-0.01-0.47265-0.01-3.1828 0.01-5.9473 1.1003-8.8066 3.4941-2.9999 2.5117-5.2332 5.7205-7.082 10.186-1.8488 4.465-2.7553 8.8947-2.9297 14.162-0.0351 0.20935-0.0352 0.3845-0.0352 0.59375-0.0603 2.8954 0.12382 5.5474 0.57031 8.123-6.5125-3.2451-12.65-5.4572-18.41-6.8281-0.32833-2.4907-0.5175-5.0606-0.57813-7.748v-0.73242c-0.10468-9.5231 1.4662-17.686 5.1289-25.988 3.6628-8.3022 8.1965-14.266 14.58-19.115s12.664-7.0826 20.094-7.1524zm-99.295 7.8887v2e-3c4.8294 0.0114 9.1511 1.6238 13.621 5.1934 4.8488 3.8719 8.5123 8.826 11.582 15.803 3.0697 6.9767 4.7086 13.953 5.1621 22.186v0.0684c0.21981 3.4576 0.19245 6.7132-0.0801 9.8652-0.95516 0.27148-1.8917 0.56519-2.8086 0.88086-5.2073 1.7925-9.7951 4.2339-13.795 6.875 0.39112-2.7628 0.44843-5.5659 0.14843-8.6914-0.0352-0.17444-0.0351-0.31393-0.0351-0.48828-0.41861-4.1511-1.2908-7.6389-2.7559-11.162-1.5697-3.6626-3.3129-6.244-5.6152-8.2324-2.0864-1.8018-4.0577-2.6297-6.2266-2.6133-0.22438 0-0.45274 0.0122-0.68164 0.0312-2.4418 0.20913-4.4642 1.3952-6.3828 3.7324-1.9186 2.3372-3.1751 5.2333-4.082 9.0703-0.90697 3.8372-1.1513 7.6042-0.76758 11.93 0 0.17434 0.0351 0.31395 0.0351 0.48828 0.41855 4.186 1.2559 7.674 2.7559 11.197 1.5349 3.6278 3.3149 6.209 5.6172 8.1973 0.38557 0.333 0.76676 0.63316 1.1465 0.90039-2.3947 1.8431-3.5376 2.6928-5.5 4.1348-1.2586 0.92353-2.7577 2.0224-4.5 3.3066-3.7996-3.5594-6.7638-8.0318-9.3555-13.922-3.0697-6.9766-4.7089-13.953-5.1973-22.186v-0.0703c-0.45346-8.2324 0.34783-15.313 2.6152-22.639 2.2674-7.3255 5.302-12.628 9.6973-16.988 4.3953-4.3603 8.8269-6.557 14.164-6.8359 0.41695-0.0229 0.82907-0.0351 1.2383-0.0332zm140.18 125.57c12.229 48.207 40.673 117.84 58.955 151.82 9.7173 18.028 29.05 56.333 37.402 102.48 5.2925-0.16214 11.119 0.60688 17.359 2.2031 21.838-56.615-18.518-117.6-36.973-134.58-7.4505-7.2296-7.8088-10.47-4.1152-10.316 20.022 17.706 46.308 53.32 55.871 93.518 4.3606 18.329 5.29 37.598 0.61133 56.615 2.2891 0.95096 4.6126 1.9842 6.9687 3.0996 35.055 17.07 48.021 31.913 41.787 52.172-2.0531-0.072-4.0732-0.063-6.043-0.0156-0.18384 5e-3 -0.36567 0.01-0.54883 0.0137 5.0763-16.058-6.1705-27.903-36.137-41.461-31.081-13.674-55.847-12.314-60.033 15.418-0.26791 1.4529-0.4843 2.9344-0.64844 4.4356-2.3221 0.80636-4.6555 1.8345-6.9961 3.1152-14.595 7.9857-22.562 22.476-26.992 40.248-4.4269 17.758-5.6962 39.225-6.918 63.357v0.0137c-0.74649 12.135-5.7351 28.546-10.795 45.93-50.915 36.319-121.58 52.053-181.58 11.107-4.0661-6.4322-8.7302-12.804-13.531-19.09-3.0659-4.014-6.2165-8.0042-9.3476-11.938 6.1591 5e-3 11.396-1.0033 15.627-2.9219 5.2617-2.3859 8.9581-6.2172 10.787-11.137 3.6579-9.8393-0.0163-23.72-11.727-39.57-11.709-15.849-31.54-33.737-60.682-51.609 0 0-6e-3 1e-3 -6e-3 -4e-3 -21.409-13.319-33.382-29.646-38.986-47.371-5.6047-17.727-4.8196-36.895-0.5-55.82 8.2911-36.326 29.595-71.656 43.188-93.828 3.6595-2.6926 1.308 4.9978-13.76 32.979-13.504 25.582-38.752 84.62-4.1856 130.71 0.92373-32.796 8.7578-66.244 21.906-97.531 19.152-43.413 59.209-118.7 62.391-178.7 1.6404 1.1912 7.2773 4.9935 9.7891 6.4219 5e-3 8e-3 0.0106 9e-3 0.0156 0.01 7.3488 4.3276 12.869 10.654 20.018 16.398 7.1625 5.7563 16.11 10.728 29.629 11.516 15.779 0.91305 27.803-3.9734 37.656-9.6074 9.838-5.6255 17.699-11.851 25.145-14.281 0.0117-8e-3 0.0222-9e-3 0.0332-0.0117 15.734-4.9202 28.244-13.628 35.363-23.785zm74.197 307.16h4e-3c9e-3 0.1461 0.0409 0.29137 0.0508 0.4375-0.22574-0.0754-0.46498-0.10917-0.70312-0.0996 0.21598-0.11142 0.43352-0.23169 0.64843-0.33789zm91.52 20.859c-0.47389 0.20958-0.94292 0.42639-1.3848 0.6875 0.19581-0.2175 0.46634-0.44408 0.6543-0.66016 0.2495-0.01 0.48212-0.017 0.73046-0.0273z" color="#000000" fill="#fff" style="text-decoration-line:none;text-indent:0;text-transform:none"/>
 </g>
</svg>
