<?xml version="1.0" encoding="UTF-8"?>
<svg width="256" height="256" version="1.1" viewBox="0 0 67.733 67.733" xmlns="http://www.w3.org/2000/svg" xmlns:cc="http://creativecommons.org/ns#" xmlns:dc="http://purl.org/dc/elements/1.1/" xmlns:rdf="http://www.w3.org/1999/02/22-rdf-syntax-ns#">
 <metadata>
  <rdf:RDF>
   <cc:Work rdf:about="">
    <dc:format>image/svg+xml</dc:format>
    <dc:type rdf:resource="http://purl.org/dc/dcmitype/StillImage"/>
    <dc:title/>
   </cc:Work>
  </rdf:RDF>
 </metadata>
 <path transform="scale(.26458)" d="m141.91 228.75c-9.2799 0.08338-15.248 5.5898-15.248 5.5898-7.1579 6.8468-17.598 14.584-17.598 14.584s-2.8369 2.2529-7.5391 4.4688h79.863c-5.4841-3.3728-10.566-8.0742-10.566-8.0742-6.9574-6.8246-14.455-12.293-14.455-12.293-5.3374-3.2301-10.239-4.3133-14.457-4.2754z"/>
 <path d="m59.949 28.796a25.597 25.597 0 0 1-25.597 25.597 25.597 25.597 0 0 1-25.597-25.597 25.597 25.597 0 0 1 25.597-25.597 25.597 25.597 0 0 1 25.597 25.597z" fill="#b3b3b3" stroke-linejoin="round" stroke-width="5.1554"/>
 <g shape-rendering="auto">
  <path transform="scale(.26458)" d="m131.52 110.94c-43.749 0.75453-69.442 3.0256-84.359 5.1523-6.2714 0.89406-10.559 1.7561-13.576 2.4863a96.745 96.745 0 0 0 1.5273 9.9219c2.58-0.65928 6.7828-1.5502 13.459-2.502 14.305-2.0394 39.644-4.3135 83.068-5.0644 37.044-0.23953 61.381 1.606 76.357 3.4844 8.4943 1.0653 13.773 2.0909 16.824 2.7891a96.745 96.745 0 0 0 1.3906-9.9102c-3.5918-0.78416-9.1446-1.8188-16.975-2.8008-15.501-1.9441-40.254-3.7985-77.658-3.5566h-0.0293-0.0293z" color="#000000" color-rendering="auto" dominant-baseline="auto" image-rendering="auto" solid-color="#000000" stop-color="#000000" style="font-feature-settings:normal;font-variant-alternates:normal;font-variant-caps:normal;font-variant-east-asian:normal;font-variant-ligatures:normal;font-variant-numeric:normal;font-variant-position:normal;font-variation-settings:normal;inline-size:0;isolation:auto;mix-blend-mode:normal;shape-margin:0;shape-padding:0;text-decoration-color:#000000;text-decoration-line:none;text-decoration-style:solid;text-indent:0;text-orientation:mixed;text-transform:none;white-space:normal"/>
  <path d="m28.367 29.596c-0.04367 5.58e-4 -0.08731 0.0025-0.13086 0.0059l-15.873 1.3223c-1.8373 0.15394-3.54 1.4836-2.1105 2.648l9.7374 8.102c0.86666 0.70532 2.1386 0.58629 2.8594-0.26758l8.5863-9.8966c1.1343-1.3464-1.3085-1.9468-3.0688-1.9139zm-4.709 4.498-2.6406 3.1309-3.2461-2.6406z" color="#000000" color-rendering="auto" dominant-baseline="auto" image-rendering="auto" solid-color="#000000" stop-color="#000000" style="font-feature-settings:normal;font-variant-alternates:normal;font-variant-caps:normal;font-variant-east-asian:normal;font-variant-ligatures:normal;font-variant-numeric:normal;font-variant-position:normal;font-variation-settings:normal;inline-size:0;isolation:auto;mix-blend-mode:normal;shape-margin:0;shape-padding:0;text-decoration-color:#000000;text-decoration-line:none;text-decoration-style:solid;text-indent:0;text-orientation:mixed;text-transform:none;white-space:normal"/>
  <path d="m40.793 29.756c-1.7709-0.03499-4.0385 0.68055-2.8599 2.0027l8.5552 9.5071c0.70791 0.79403 1.9089 0.90654 2.752 0.25781 1.3366-0.91134 9.9871-8.1159 9.9871-8.1159-0.64986-1.5118 0.44376-2.1033-2.159-2.3724l-16.156-1.2734c-0.03965-0.0031-0.07938-0.0051-0.11914-0.0059zm4.8359 4.4473 5.8652 0.46289-3.2344 2.4902z" color="#000000" color-rendering="auto" dominant-baseline="auto" image-rendering="auto" solid-color="#000000" stop-color="#000000" style="font-feature-settings:normal;font-variant-alternates:normal;font-variant-caps:normal;font-variant-east-asian:normal;font-variant-ligatures:normal;font-variant-numeric:normal;font-variant-position:normal;font-variation-settings:normal;inline-size:0;isolation:auto;mix-blend-mode:normal;shape-margin:0;shape-padding:0;text-decoration-color:#000000;text-decoration-line:none;text-decoration-style:solid;text-indent:0;text-orientation:mixed;text-transform:none;white-space:normal"/>
 </g>
 <g>
  <path d="m21.059 38.879-6.3765-5.1891 11.567-0.96276z" fill="#15fea6" stroke="#15fea6" stroke-linejoin="round" stroke-width="2.9864"/>
  <path d="m48.264 38.758 6.4901-4.9987-11.773-0.92743z" fill="#15fea6" stroke="#15fea6" stroke-linejoin="round" stroke-width="2.957"/>
  <path transform="scale(.26458)" d="m79.848 195.48c-13.886 22.275-22.682 38.094-27.17 57.906h29.648l9.3184-26.047s-3.1055-10.447 0.88477-25.273c0 0-5.1576-1.2624-12.682-6.5859z" fill="#b3b3b3"/>
  <path d="m28.86 54.645c-0.58299 2.2021-1.7339 3.5734-1.7339 3.5734s-0.93583 1.0858-2.8779 1.9319l-1.3002 6.3988 2.1101 0.33861c2.302-0.66616 3.7883-1.8571 3.7883-1.8571s2.7625-2.0359 4.6563-3.8377c0 0 3.3407-3.0663 7.8596-0.34627 0 0 1.9835 1.4391 3.8243 3.235 0 0 1.7917 1.6513 3.4714 2.5068 0 0-0.02111-4.0257-1.7214-7.4653 0 0-1.2477-1.1803-2.0959-3.0808 0 0-0.7087-1.7414-0.7087-2.6693-3.9464 1.6353-7.6429 1.815-7.6429 1.815s-3.128 0.3695-7.6293-0.54317z" fill="#b3b3b3"/>
  <path d="m25.328 53.704-0.33801 0.5683c-0.71858 2.6257-0.15933 4.4759-0.15933 4.4759 1.3219-0.56634 1.9588-1.2933 1.9588-1.2933s0.7836-0.91786 1.1804-2.3918l0.12311-0.54201c-0.94304-0.19664-1.8679-0.46991-2.7649-0.817z"/>
  <path transform="scale(.26458)" d="m186.64 190.77c-7.079 5.9023-12.121 7.5664-12.121 7.5664 5.1512 14.464 2.8809 25.125 2.8809 25.125l13.469 29.93h29.416c-5.7289-22.981-16.2-39.028-33.645-62.621z" fill="#b3b3b3"/>
  <path d="m45.552 52.74a13.693 13.693 0 0 1-0.88654 0.40719l-0.03676 0.50892c0 0.49634 0.37927 1.4278 0.37927 1.4278 0.45371 1.0166 1.121 1.6481 1.121 1.6481s0.32133-1.5089-0.40775-3.5561z"/>
 </g>
</svg>
